<svg width="24" height="28" viewBox="0 0 24 28" fill="none" xmlns="http://www.w3.org/2000/svg">
<g filter="url(#filter0_d_1_250)">
<path d="M12 8.33329C13.841 8.33329 15.3333 6.84091 15.3333 4.99996C15.3333 3.15901 13.841 1.66663 12 1.66663C10.1591 1.66663 8.66667 3.15901 8.66667 4.99996C8.66667 6.84091 10.1591 8.33329 12 8.33329Z" stroke="#545454" stroke-width="1.5"/>
<path d="M18.665 14.9999C18.6667 14.8633 18.6667 14.7241 18.6667 14.5833C18.6667 12.5124 15.6817 10.8333 12 10.8333C8.31834 10.8333 5.33334 12.5124 5.33334 14.5833C5.33334 16.6541 5.33334 18.3333 12 18.3333C13.8592 18.3333 15.2 18.2024 16.1667 17.9691" stroke="#545454" stroke-width="1.5" stroke-linecap="round"/>
</g>
<defs>
<filter id="filter0_d_1_250" x="-2" y="0" width="28" height="28" filterUnits="userSpaceOnUse" color-interpolation-filters="sRGB">
<feFlood flood-opacity="0" result="BackgroundImageFix"/>
<feColorMatrix in="SourceAlpha" type="matrix" values="0 0 0 0 0 0 0 0 0 0 0 0 0 0 0 0 0 0 127 0" result="hardAlpha"/>
<feOffset dy="4"/>
<feGaussianBlur stdDeviation="2"/>
<feComposite in2="hardAlpha" operator="out"/>
<feColorMatrix type="matrix" values="0 0 0 0 0 0 0 0 0 0 0 0 0 0 0 0 0 0 0.25 0"/>
<feBlend mode="normal" in2="BackgroundImageFix" result="effect1_dropShadow_1_250"/>
<feBlend mode="normal" in="SourceGraphic" in2="effect1_dropShadow_1_250" result="shape"/>
</filter>
</defs>
</svg>
